<?xml version="1.0" encoding="UTF-8" standalone="no"?>
<!DOCTYPE svg PUBLIC "-//W3C//DTD SVG 1.1//EN" "http://www.w3.org/Graphics/SVG/1.1/DTD/svg11.dtd">
<svg width="100%" height="100%" viewBox="0 0 25 25" version="1.1" xmlns="http://www.w3.org/2000/svg" xmlns:xlink="http://www.w3.org/1999/xlink" xml:space="preserve" xmlns:serif="http://www.serif.com/" style="fill-rule:evenodd;clip-rule:evenodd;stroke-linecap:round;stroke-linejoin:round;stroke-miterlimit:1.5;">
    <g id="half-curly-arrow" serif:id="half curly arrow" transform="matrix(0.390625,0,0,0.390625,0.337575,0.29974)">
        <path d="M31.136,12.892C19.206,12.892 9.535,22.358 9.535,34.035C9.535,45.705 19.214,55.179 31.136,55.179C43.066,55.179 52.737,45.712 52.737,34.035" style="fill:none;stroke:rgb(112,112,112);stroke-width:2.5px;"/>
        <g transform="matrix(1,0,0,1,-0.813214,0.508259)">
            <path d="M32.077,13.511C36.685,13.511 45.336,12.383 45.336,12.383L28.623,6.778L31.739,13.511C31.739,13.511 27.469,13.511 32.077,13.511Z" style="fill:rgb(112,112,112);"/>
            <path d="M32.077,13.511C36.685,13.511 45.336,12.383 45.336,12.383L28.623,6.778L31.739,13.511C31.739,13.511 27.469,13.511 32.077,13.511ZM43.081,12.154L29.564,7.621L32.058,13.011L32.077,13.011C33.593,13.006 35.108,12.912 36.62,12.795C38.661,12.636 40.698,12.426 42.733,12.195L43.081,12.154Z" style="fill:rgb(112,112,112);"/>
        </g>
    </g>
</svg>
