<?xml version="1.0" encoding="UTF-8" standalone="no"?>
<!DOCTYPE svg PUBLIC "-//W3C//DTD SVG 1.1//EN" "http://www.w3.org/Graphics/SVG/1.1/DTD/svg11.dtd">
<svg width="100%" height="100%" viewBox="0 0 25 25" version="1.1" xmlns="http://www.w3.org/2000/svg" xmlns:xlink="http://www.w3.org/1999/xlink" xml:space="preserve" xmlns:serif="http://www.serif.com/" style="fill-rule:evenodd;clip-rule:evenodd;stroke-linecap:round;stroke-miterlimit:10;">
    <g id="transform" transform="matrix(0.463655,0,0,0.463655,-2.73853,-2.64484)">
        <g transform="matrix(2.15678,-0,-0,2.15678,5.9064,5.70433)">
            <path d="M9.5,20.34L12.5,23.34L15.5,20.34" style="fill:none;stroke:rgb(112,112,112);stroke-width:2px;"/>
            <path d="M9.5,4.66L12.5,1.66L15.5,4.66" style="fill:none;stroke:rgb(112,112,112);stroke-width:2px;"/>
            <path d="M12.5,23.34L12.5,1.66" style="fill:none;stroke:rgb(112,112,112);stroke-width:2px;stroke-linejoin:round;stroke-miterlimit:1.5;"/>
        </g>
        <g transform="matrix(6.12323e-17,1,-1,6.12323e-17,65.5301,-0.202071)">
            <g transform="matrix(1.32064e-16,-2.15678,2.15678,1.32064e-16,5.9064,59.6237)">
                <path d="M4.66,9.5L1.66,12.5L4.66,15.5" style="fill:none;stroke:rgb(112,112,112);stroke-width:2px;"/>
                <path d="M20.34,9.5L23.34,12.5L20.34,15.5" style="fill:none;stroke:rgb(112,112,112);stroke-width:2px;"/>
                <path d="M1.66,12.5L23.34,12.5" style="fill:none;stroke:rgb(112,112,112);stroke-width:2px;stroke-linejoin:round;stroke-miterlimit:1.5;"/>
            </g>
        </g>
    </g>
</svg>
